<?xml version="1.0" standalone="no"?>
<!DOCTYPE svg PUBLIC "-//W3C//DTD SVG 20010904//EN"
 "http://www.w3.org/TR/2001/REC-SVG-20010904/DTD/svg10.dtd">
<svg version="1.0" xmlns="http://www.w3.org/2000/svg"
 width="500.000000pt" height="500.000000pt" viewBox="0 0 500.000000 500.000000"
 preserveAspectRatio="xMidYMid meet">
<metadata>
Created by potrace 1.11, written by Peter Selinger 2001-2013
</metadata>
<g transform="translate(0.000000,500.000000) scale(0.100000,-0.100000)"
fill="#000000" stroke="none">
<path d="M67 4373 c-9 -8 -9 -1136 -1 -1157 6 -14 120 -16 1190 -16 l1184 0 0
590 0 590 -1183 0 c-651 0 -1187 -3 -1190 -7z"/>
<path d="M2560 3790 l0 -590 1180 0 1180 0 0 590 0 590 -1180 0 -1180 0 0
-590z"/>
<path d="M2560 2485 l0 -595 1180 0 1180 0 0 595 0 595 -1180 0 -1180 0 0
-595z"/>
<path d="M2561 1766 c-8 -9 -10 -173 -9 -592 l3 -579 1185 0 1185 0 3 573 c1
384 -1 579 -8 593 -11 19 -31 19 -1179 19 -974 0 -1170 -2 -1180 -14z"/>
<path d="M70 1180 l0 -590 1180 0 1180 0 0 590 0 590 -1180 0 -1180 0 0 -590z"/>
</g>
</svg>
